<svg width="320" height="1215" fill="none" xmlns="http://www.w3.org/2000/svg"><path d="M14.85 95.503c3.422 19.35-9.504 17.785-16.394 14.584v237.604c0 46.434-3.276 852.819 0 865.899 1.988 7.93 19.246-32.94 16.394-41.83-2.85-8.89-8.553-41.41 3.92-44.96 12.475-3.56 14.257-11.74 20.672-22.06 6.415-10.31 22.81-30.59 62.727-14.93 39.917 15.65 66.291 1.42 85.18-12.81 37.422-28.19 100.893.14 118.532 24.29 9.256 12.67-15.995 75.3 0 81.35 7.991 3.01 15.119 58.49 15.119-3.02V91.59c-.238 2.609-1.996 7.043-7.128 3.913-15.111-7.683-8.91-31.183-3.92-41.972 2.732-10.315 3.635-34.503-14.613-48.73-21.461-16.733-84.612 15.65-121.248 15.65-40.025 0-59.448-9.248-83.327-17.785C66.885-5.87 47.996 8.713 40.512 20.451 33.026 32.19 32.67 36.813 21.265 42.15c-22.454 8.18-10.692 29.167-6.415 53.354z" fill="#FEF3E4"/></svg>