<svg width="768" height="1260" fill="none" xmlns="http://www.w3.org/2000/svg"><path d="M37.588 228.336c8.163 46.263-22.675 42.522-39.114 34.868v568.084c0 111.016-7.816 395.002 0 426.272 4.743 18.98 45.916-78.74 39.114-100-6.803-21.26-20.408-99 9.353-107.5 29.76-8.5 34.012-28.06 49.318-52.727 15.305-24.662 54.419-73.136 149.653-35.718 95.235 37.419 158.157 3.402 203.223-30.615 89.283-67.392 240.71.332 282.793 58.062 22.084 30.298-38.159 180.058 0 194.498 19.066 7.22 36.072 139.86 36.072-7.21V218.981c-.567 6.237-4.762 16.839-17.006 9.355-36.053-18.369-21.258-74.554-9.353-100.35 6.519-24.663 8.673-82.492-34.863-116.508C655.577-28.53 504.91 48.897 417.505 48.896c-95.494 0-141.832-22.11-198.802-42.521-56.971-20.41-102.037 14.457-119.894 42.521-17.856 28.064-18.706 39.12-45.916 51.876-53.57 19.56-25.509 69.735-15.305 127.564z" fill="#FEF3E4"/></svg>