<svg width="1280" height="1497" fill="none" xmlns="http://www.w3.org/2000/svg"><path d="M65.06 379.752C78.64 456.683 27.345 450.461 0 437.733v944.657C0 1567-13 1487 0 1539c7.89 31.56 50.917-121.25 39.602-156.61-11.315-35.35-8.486-101.82 41.017-115.96s56.574-46.67 82.033-87.68c25.458-41.01 90.519-121.61 248.928-59.39s263.072 5.66 338.033-50.91C898.122 956.383 1150 1069 1220 1165c36.73 50.38-63.47 307.98 0 332 31.71 12 60 232.57 60-12V364.196c-.94 10.371-7.92 28.001-28.29 15.556-59.97-30.545-35.36-123.975-15.56-166.871 10.85-41.011 14.43-137.174-57.98-193.74C1093-47.385 842.387 81.365 697 81.364c-158.84 0-235.917-36.768-330.68-70.708-94.762-33.94-169.723 24.04-199.425 70.708-29.702 46.668-31.116 65.052-76.376 86.264-89.105 32.526-42.43 115.961-25.458 212.124z" fill="#FEF3E4"/></svg>