<svg width="21" height="19" fill="none" xmlns="http://www.w3.org/2000/svg"><path d="M14.946 4.924a.277.277 0 01-.278-.278 4.063 4.063 0 00-8.124 0 .277.277 0 11-.555 0 4.618 4.618 0 019.234 0 .278.278 0 01-.277.278z" fill="#674D40"/><path d="M15.755 11.203a.278.278 0 01-.003-.555 4.034 4.034 0 004.01-3.982 4.03 4.03 0 00-4.06-3.99c-.409 0-.816.06-1.208.18a.277.277 0 01-.163-.531 4.679 4.679 0 011.372-.204 4.585 4.585 0 014.614 4.545 4.591 4.591 0 01-4.558 4.537h-.004zM5.455 11.203h-.003A4.591 4.591 0 01.894 6.666a4.585 4.585 0 014.614-4.545c.465 0 .927.068 1.372.204a.278.278 0 11-.163.53c-.392-.12-.8-.18-1.209-.18a4.03 4.03 0 00-4.06 3.991 4.034 4.034 0 004.01 3.982.278.278 0 11-.003.555z" fill="#674D40"/><path d="M15.756 18.106h-10.3a.278.278 0 01-.278-.277v-6.903a.277.277 0 11.555 0v6.625h9.745v-6.625a.278.278 0 01.555 0v6.903a.277.277 0 01-.277.277z" fill="#674D40"/><path d="M17.687 15.417h-10.3a.278.278 0 010-.555h10.3a.277.277 0 110 .555z" fill="#674D40"/></svg>