<svg aria-hidden="true" style="position:absolute;width:0;height:0" xmlns="http://www.w3.org/2000/svg" overflow="hidden"><defs><symbol id="icon-twitter" viewBox="0 0 40 32"><path d="M40.421 3.789a17.14 17.14 0 01-4.689 1.265l-.086.009a8.116 8.116 0 003.63-4.406L39.293.6a16.493 16.493 0 01-5.148 1.938l-.107.017A8.383 8.383 0 0028.002 0h-.021.001c-4.583 0-8.276 3.628-8.276 8.076 0 .64.056 1.256.192 1.843a23.64 23.64 0 01-17.055-8.41l-.029-.036a7.884 7.884 0 00-1.133 4.08v.001c0 2.796 1.477 5.275 3.68 6.71a8.33 8.33 0 01-3.788-1.015l.044.022v.089c0 3.924 2.873 7.181 6.639 7.933-.674.18-1.41.266-2.173.266-.531 0-1.066-.03-1.57-.138 1.075 3.198 4.121 5.548 7.744 5.625a16.817 16.817 0 01-10.233 3.443h-.042.002c-.68 0-1.332-.029-1.984-.109 3.673 2.307 8.024 3.623 12.714 3.623 15.249 0 23.586-12.308 23.586-22.976 0-.357-.013-.702-.03-1.044a16.446 16.446 0 004.118-4.136l.036-.055z"/></symbol><symbol id="icon-instagram" viewBox="0 0 32 32"><path d="M16.315 32h-.318l-.474.001c-2.324 0-4.632-.071-6.921-.212l.314.015c-2.067-.126-3.953-.84-5.455-2.065-1.448-1.182-2.439-2.781-2.942-4.749-.438-1.716-.46-3.399-.483-5.027a323.433 323.433 0 01-.035-3.96c.003-1.415.02-2.799.035-3.966.024-1.629.045-3.311.483-5.027.504-1.971 1.492-3.567 2.942-4.749C4.963 1.037 6.85.322 8.918.196a107.717 107.717 0 017.111-.195h-.026L16.457 0c2.331 0 4.646.071 6.942.212l-.315-.015c2.067.126 3.953.84 5.455 2.065 1.448 1.182 2.439 2.779 2.942 4.749.438 1.716.46 3.399.483 5.027.017 1.167.034 2.552.035 3.96v.007c-.003 1.406-.02 2.791-.035 3.96-.024 1.629-.045 3.311-.483 5.027-.504 1.969-1.492 3.567-2.942 4.749-1.502 1.224-3.389 1.939-5.457 2.065a106.45 106.45 0 01-6.575.196h-.201.01zm-.318-2.501l.475.001c2.273 0 4.529-.069 6.768-.206l-.307.015c1.561-.094 2.917-.601 4.025-1.506 1.027-.837 1.735-1.992 2.1-3.431.365-1.428.387-2.961.406-4.443.017-1.162.034-2.535.037-3.929-.003-1.395-.02-2.769-.037-3.929-.02-1.482-.04-3.015-.404-4.443-.369-1.44-1.075-2.594-2.1-3.431-1.112-.904-2.466-1.411-4.029-1.506-1.94-.123-4.206-.193-6.489-.193l-.462.001h.024l-.453-.001c-2.28 0-4.544.07-6.789.208l.308-.015c-1.563.094-2.919.601-4.029 1.506-1.026.837-1.731 1.991-2.099 3.431-.365 1.428-.387 2.961-.406 4.443a317.477 317.477 0 00-.037 3.933c.003 1.388.02 2.764.037 3.924.02 1.482.04 3.015.404 4.443.369 1.44 1.075 2.594 2.1 3.432 1.112.904 2.466 1.411 4.029 1.506 2.2.135 4.467.197 6.927.19zm-.059-5.686A7.822 7.822 0 018.125 16a7.822 7.822 0 017.813-7.813A7.822 7.822 0 0123.751 16a7.822 7.822 0 01-7.814 7.813zm0-13.125A5.32 5.32 0 0010.624 16a5.319 5.319 0 005.313 5.312A5.32 5.32 0 0021.249 16a5.32 5.32 0 00-5.312-5.312zm8.687-5.002a1.875 1.875 0 000 3.75 1.875 1.875 0 000-3.75z"/></symbol><symbol id="icon-facebook" viewBox="0 0 19 32"><path d="M16.65.007L12.5 0C7.838 0 4.825 3.091 4.825 7.875v3.631H.652a.652.652 0 00-.652.652v5.261c0 .36.293.653.652.653h4.173v13.275c0 .36.291.652.652.652H10.922c.36 0 .652-.292.652-.652V18.07h4.879c.36 0 .652-.292.652-.652v-5.26a.653.653 0 00-.652-.652h-4.879v-3.08c0-1.479.354-2.23 2.279-2.23h2.796c.36 0 .652-.292.652-.652V.658a.653.653 0 00-.65-.653z"/></symbol><symbol id="icon-tel" viewBox="0 0 32 32"><path d="M29.43 21.002h-.033c-2.028 0-3.979-.332-5.801-.946l.128.037c-.894-.305-1.991-.025-2.535.534l-3.599 2.718c-4.172-2.228-6.742-4.798-8.938-8.938l2.634-3.505a2.577 2.577 0 00.633-2.637l.005.018c-.577-1.697-.911-3.652-.911-5.685v-.033.002A2.576 2.576 0 008.443 0H2.567A2.57 2.57 0 000 2.567C0 18.796 13.201 32 29.43 32a2.57 2.57 0 002.567-2.567v-5.858a2.571 2.571 0 00-2.567-2.57z"/></symbol><symbol id="icon-location" viewBox="0 0 23 32"><path d="M11.733 1.195c6.47 0 11.733 5.261 11.733 11.733 0 2.56-.811 4.992-2.34 7.031l-8.67 11.678c-.021.03-.055.041-.079.064a.875.875 0 01-1.364-.062l-.002-.002c-2.498-3.328-7.074-9.551-8.832-11.898l-.004-.006-.011-.013a11.557 11.557 0 01-2.165-6.764v-.032.002c0-6.47 5.263-11.731 11.733-11.731zm0 18.06a6.348 6.348 0 006.33-6.326v-.001a6.347 6.347 0 00-6.329-6.332h-.001a6.348 6.348 0 00-6.33 6.329v.001a6.348 6.348 0 006.329 6.33h.001z"/></symbol><symbol id="icon-menu" viewBox="0 0 60 32"><path d="M2 0h56a2 2 0 110 4H2a2 2 0 110-4zM2 14h56a2 2 0 110 4H2a2 2 0 110-4zM2 28h56a2 2 0 110 4H2a2 2 0 110-4z"/></symbol><symbol id="icon-close" viewBox="0 0 32 32"><path d="M30.354 32a1.646 1.646 0 001.162-2.81L2.812.481A1.647 1.647 0 00.483 2.81l28.708 28.708c.322.32.743.484 1.164.484z"/><path d="M1.644 32c.421 0 .843-.16 1.164-.484L31.517 2.81A1.647 1.647 0 0029.188.481L.479 29.19a1.645 1.645 0 001.164 2.809z"/></symbol><symbol id="icon-chef-hat" viewBox="0 0 35 32"><path fill="var(--color1, #674d40)" d="M25.172 8.293h-.002a.467.467 0 01-.467-.467v-.002a6.843 6.843 0 00-13.682-.008v.008a.467.467 0 11-.934 0 7.778 7.778 0 0115.552-.009v.008a.468.468 0 01-.466.468z"/><path fill="var(--color1, #674d40)" d="M26.535 18.868a.47.47 0 01-.007-.935h.001a6.795 6.795 0 006.754-6.702v-.005a6.788 6.788 0 00-6.787-6.72h-.054.003c-.689 0-1.374.101-2.035.303a.468.468 0 01-.278-.893l.003-.001a7.712 7.712 0 012.302-.344H26.496a7.722 7.722 0 017.722 7.651v.004a7.733 7.733 0 01-7.674 7.641h-.01zm-17.348 0h-.005a7.733 7.733 0 01-7.677-7.636v-.005a7.723 7.723 0 017.722-7.655h.052-.003c.783 0 1.561.115 2.311.344a.469.469 0 11-.277.891l.003.001a6.96 6.96 0 00-2.036-.303h-.051a6.787 6.787 0 00-6.787 6.718v.004a6.796 6.796 0 006.752 6.707h.002l.025-.001a.468.468 0 110 .936l-.032-.001h.001z"/><path fill="var(--color1, #674d40)" d="M26.536 30.494H9.189a.468.468 0 01-.468-.466V18.402a.467.467 0 11.934 0V29.56h16.413V18.402a.469.469 0 01.934-.001V30.028a.467.467 0 01-.467.467z"/><path fill="var(--color1, #674d40)" d="M29.789 25.965H12.442a.469.469 0 01-.001-.934H29.789a.467.467 0 110 .934z"/></symbol><symbol id="icon-people" viewBox="0 0 35 32"><path fill="var(--color1, #674d40)" d="M11.975.729A6.597 6.597 0 005.39 7.314v.001a6.598 6.598 0 006.585 6.589h.001a6.598 6.598 0 006.589-6.586v-.001A6.597 6.597 0 0011.977.73zm0 12.069a5.493 5.493 0 01-5.489-5.491 5.5 5.5 0 015.49-5.489 5.495 5.495 0 015.489 5.491 5.5 5.5 0 01-5.49 5.491zm13.492-9.335a4.946 4.946 0 00-4.945 4.945 4.947 4.947 0 004.945 4.943 4.947 4.947 0 004.943-4.943 4.947 4.947 0 00-4.943-4.945zm0 8.796a3.849 3.849 0 01-3.847-3.845 3.85 3.85 0 013.847-3.847 3.849 3.849 0 013.845 3.847 3.848 3.848 0 01-3.845 3.845z"/><path fill="var(--color1, #674d40)" d="M34.311 20.598c-.499-3.003-2.365-5.536-5.543-6.863 0 0-1.408 1.064-3.301 1.031-2.068-.04-3.301-1.031-3.301-1.031s-1.536.573-2.774 1.765c-1.145-1.017-3.079-1.846-3.079-1.846s-1.772 1.347-4.345 1.327c-2.7-.02-4.33-1.327-4.33-1.327S1.799 15.663.564 22.471c0 0-1.319 3.611 1.74 9.005h19.352s1.373-2.392 1.617-3.845h9.624c2.365-3.584 1.415-7.033 1.415-7.033zm-13.338 9.78H2.982C.633 25.913 1.65 22.653 1.65 22.653a10.469 10.469 0 015.843-7.732l.064-.027c2.695 1.583 6.149 1.583 8.842 0 3.089 1.455 5.318 4.295 5.899 7.697l.009.062c-.007 0 .97 4.015-1.334 7.725zm11.285-3.845h-8.765c.337-1.94-.108-4.062-.108-4.062a11.517 11.517 0 00-3.187-6.232l.001.001a7.856 7.856 0 011.833-1.244l.046-.021c.974.559 2.141.889 3.385.889s2.412-.33 3.419-.907l-.034.018c2.289 1.105 3.937 3.225 4.371 5.759l.007.047s.802 2.722-.97 5.753z"/></symbol><symbol id="icon-clock" viewBox="0 0 34 32"><path fill="var(--color1, #674d40)" d="M16.632.25C7.931.25.853 7.327.853 16.026c0 8.701 7.078 15.779 15.779 15.779 8.699 0 15.776-7.078 15.776-15.778 0-8.701-7.077-15.778-15.776-15.778zm0 30.502c-8.12 0-14.726-6.605-14.726-14.725-.002-8.12 6.606-14.726 14.726-14.726 8.118 0 14.725 6.606 14.725 14.726s-6.606 14.725-14.725 14.725z"/><path fill="var(--color1, #674d40)" d="M17.157 13.934V8.6l.001-.029a.526.526 0 10-1.051.03V8.6v5.336a2.104 2.104 0 00-1.504 1.504h-3.754l-.029-.001a.526.526 0 000 1.052l.03-.001h-.001 3.757a2.101 2.101 0 002.029 1.578c1.16 0 2.104-.944 2.104-2.104 0-.978-.674-1.794-1.579-2.029zm-.525 3.08a1.053 1.053 0 01.001-2.106h.001a1.053 1.053 0 01-.001 2.106h-.001zm0-11.569a.526.526 0 00.525-.526v-.526l.001-.029a.526.526 0 10-1.051.03v-.001.528c0 .288.235.525.526.525zm0 21.037h-.002a.526.526 0 00-.526.526v.525a.526.526 0 001.052 0v-.525a.526.526 0 00-.525-.526zm11.57-11.045h-.526a.526.526 0 000 1.052h.526a.526.526 0 000-1.052zm-22.615 0h-.526a.526.526 0 000 1.052h.526a.526.526 0 000-1.052zm18.855-8.029l-.373.373a.525.525 0 10.744.744l.371-.371a.525.525 0 00-.743-.744zM8.45 23.4l-.371.373a.526.526 0 00.744.743l.371-.371a.525.525 0 10-.744-.744zm16.363 0a.525.525 0 10-.744.744l.373.373a.523.523 0 00.742 0 .522.522 0 000-.744l-.371-.373zM8.822 7.408a.525.525 0 00-.899.373c0 .146.059.277.155.373l.371.371a.526.526 0 00.744 0 .526.526 0 000-.744l-.371-.371z"/></symbol><symbol id="icon-chat" viewBox="0 0 46 32"><path fill="var(--color1, #674d40)" d="M35.371 13.998c0-8.062-8.498-13.346-16.983-13.346C9.867.652 1.405 5.96 1.405 13.998c0 3.04 1.332 6.014 3.751 8.373.091.089.126.228.091.356-.759 2.784-2.558 5.298-3.296 6.249a.947.947 0 00-.097 1.028l-.002-.005c.16.314.48.526.851.526h.031c3.612-.089 7.799-1.109 10.388-3.653a.369.369 0 01.347-.094c1.591.377 3.246.569 4.921.569 8.516 0 16.983-5.308 16.983-13.348zm-21.606 11.52a1.651 1.651 0 00-1.552.431c-2.588 2.544-6.814 3.124-8.816 3.253.914-1.262 2.4-3.58 3.097-6.133a1.655 1.655 0 00-.437-1.623c-2.197-2.144-3.36-4.718-3.36-7.447 0-6.645 7.04-12.053 15.691-12.053s15.689 5.408 15.689 12.053c0 6.647-7.038 12.053-15.689 12.053-1.575 0-3.129-.178-4.622-.533z"/><path fill="var(--color1, #674d40)" d="M39.529 24.743c3.771-1.906 6.021-5.152 6.021-8.688 0-4.996-4.516-9.262-10.736-10.148a.647.647 0 00-.185 1.279l.004.001c5.577.795 9.625 4.523 9.625 8.868 0 3.036-1.986 5.852-5.312 7.534a1.603 1.603 0 00-.841 1.767l-.002-.011c.315 1.483.987 2.855 1.524 3.785-3.819-.636-5.266-2.469-5.724-3.262a1.595 1.595 0 00-1.378-.793h-.054c-.716 0-1.435-.05-2.133-.148a.647.647 0 00-.185 1.279l.004.001c.759.107 1.538.16 2.315.16h.053a.3.3 0 01.26.148c1.751 3.035 5.778 3.81 7.428 4.002a.933.933 0 00.907-.436.92.92 0 00.143-.496.917.917 0 00-.153-.51l.002.003c-.498-.773-1.383-2.324-1.742-4.002a.301.301 0 01.16-.333l.002-.001zM8.324 11.685a2.243 2.243 0 00-2.24 2.24c0 1.237 1.004 2.242 2.24 2.242s2.242-1.004 2.242-2.24a2.244 2.244 0 00-2.24-2.242zm0 3.19a.95.95 0 01.001-1.898h.002a.95.95 0 01-.001 1.898h-.002zm6.394-3.19a2.243 2.243 0 00-2.24 2.24c0 1.237 1.004 2.242 2.24 2.242a2.241 2.241 0 000-4.482zm0 3.19a.949.949 0 01.001-1.898h.001a.949.949 0 01-.001 1.898h-.001zm6.393-3.19a2.243 2.243 0 00-2.24 2.24c0 1.237 1.004 2.242 2.24 2.242a2.241 2.241 0 000-4.482zm0 3.19a.949.949 0 01.001-1.898h.001a.95.95 0 010 1.898zm6.395-3.19a2.244 2.244 0 00-2.242 2.24 2.244 2.244 0 002.24 2.242c1.237 0 2.242-1.004 2.242-2.24s-1.004-2.242-2.24-2.242zm0 3.19a.95.95 0 010-1.898.95.95 0 010 1.898z"/></symbol><symbol id="icon-star" viewBox="0 0 34 32"><path fill="none" stroke="var(--color1, #ab816c)" stroke-width="1.684" d="M16.041 1.822c.252-.776 1.35-.776 1.602 0l2.558 7.872a2.526 2.526 0 002.403 1.746h8.277c.816 0 1.155 1.044.495 1.523l-6.696 4.865a2.528 2.528 0 00-.918 2.825l2.558 7.872c.252.776-.636 1.421-1.296.941l-6.696-4.865a2.528 2.528 0 00-2.97 0l-6.696 4.865c-.66.48-1.548-.166-1.296-.941l2.558-7.872a2.527 2.527 0 00-.918-2.825L2.31 12.963c-.66-.479-.321-1.523.495-1.523h8.277a2.528 2.528 0 002.403-1.746l2.558-7.872z"/></symbol><symbol id="icon-star-fill" viewBox="0 0 34 32"><path fill="var(--color1, #ab816c)" d="M15.24 1.561c.504-1.552 2.699-1.552 3.204 0l2.558 7.872a1.684 1.684 0 001.602 1.164h8.277c1.632 0 2.31 2.088.99 3.047l-6.696 4.865a1.685 1.685 0 00-.612 1.883l2.558 7.872c.504 1.552-1.272 2.842-2.592 1.883l-6.696-4.865a1.684 1.684 0 00-1.98 0l-6.696 4.865c-1.32.959-3.096-.331-2.592-1.883l2.558-7.872a1.685 1.685 0 00-.612-1.883l-6.696-4.865c-1.32-.959-.642-3.047.99-3.047h8.277c.73 0 1.376-.47 1.602-1.164l2.558-7.872z"/></symbol></defs>
<symbol id="icon-up" viewBox="0 0 32 32"><path d="M22.086 20.914l2.829-2.829-8.914-8.914-8.914 8.914 2.828 2.828 6.086-6.086z"></path></symbol>
</defs></svg>
