<?xml version="1.0" standalone="no"?>
<!DOCTYPE svg PUBLIC "-//W3C//DTD SVG 20010904//EN"
 "http://www.w3.org/TR/2001/REC-SVG-20010904/DTD/svg10.dtd">
<svg version="1.0" xmlns="http://www.w3.org/2000/svg"
 width="85.000000pt" height="85.000000pt" viewBox="0 0 85.000000 85.000000"
 preserveAspectRatio="xMidYMid meet">
<metadata>
Created by potrace 1.14, written by Peter Selinger 2001-2017
</metadata>
<g transform="translate(0.000000,85.000000) scale(0.100000,-0.100000)"
fill="#000000" stroke="none">
<path d="M455 752 c4 -9 10 -25 12 -34 3 -10 9 -18 14 -18 13 0 59 -99 59
-129 0 -30 21 -81 33 -81 5 0 5 6 1 13 -5 8 -2 7 9 -2 10 -8 15 -16 12 -19 -3
-3 3 -11 14 -16 11 -6 42 -32 69 -58 37 -35 49 -53 45 -68 -8 -30 -23 -35 -39
-12 -8 11 -39 44 -69 73 -30 29 -55 58 -55 66 0 7 -4 13 -10 13 -5 0 -10 6
-10 14 0 7 -7 19 -15 26 -8 7 -14 18 -13 24 2 6 -2 13 -7 15 -20 9 -41 42 -96
156 -11 23 -23 31 -47 33 -26 3 -32 0 -32 -17 0 -10 4 -21 8 -23 4 -1 20 -25
36 -51 21 -36 25 -51 17 -61 -9 -10 -7 -15 9 -19 20 -5 28 -31 12 -41 -13 -8
-134 144 -136 170 l-1 23 -22 -21 c-33 -31 -29 -48 27 -112 28 -32 48 -61 45
-66 -3 -4 4 -10 15 -13 14 -3 20 -14 20 -31 0 -14 -3 -26 -8 -26 -4 0 -43 36
-86 81 -43 44 -83 78 -90 76 -15 -6 -54 -131 -60 -197 -5 -46 -2 -63 21 -109
39 -77 93 -133 165 -172 54 -29 72 -34 128 -33 116 1 207 60 291 188 37 58 39
63 39 144 0 88 -7 110 -49 155 -24 26 -61 53 -61 44 0 -2 22 -32 50 -68 39
-50 50 -72 49 -99 0 -29 -2 -32 -9 -14 -5 12 -24 31 -43 43 -20 12 -48 43 -63
69 -15 26 -38 62 -51 80 -15 20 -23 41 -20 53 3 10 1 17 -4 13 -5 -3 -9 -1 -9
5 0 12 -31 30 -72 42 -26 7 -29 6 -23 -9z m80 -52 c3 -5 1 -10 -4 -10 -6 0
-11 5 -11 10 0 6 2 10 4 10 3 0 8 -4 11 -10z m-260 -252 c72 -67 98 -105 112
-162 7 -28 20 -63 29 -79 14 -24 14 -27 0 -27 -18 0 -63 58 -113 148 -19 34
-43 68 -54 75 -35 25 -89 105 -89 133 l0 28 33 -35 c18 -18 55 -55 82 -81z
m-105 -56 c14 -20 27 -41 29 -47 2 -5 12 -19 22 -30 19 -22 69 -111 69 -124 0
-5 -10 -6 -22 -4 -33 7 -138 168 -138 211 0 42 9 40 40 -6z m422 -62 c37 -38
68 -72 68 -76 0 -8 -31 -33 -42 -34 -3 0 -20 25 -37 55 -17 30 -35 55 -39 55
-9 0 -32 44 -32 60 0 19 14 9 82 -60z m-112 -8 c8 -26 30 -65 53 -89 30 -32
35 -43 22 -43 -12 0 -15 -5 -11 -16 15 -39 -23 9 -49 61 -14 31 -32 61 -38 68
-16 17 -37 55 -37 65 0 5 10 7 23 5 17 -4 26 -16 37 -51z m-20 -177 c25 -26
21 -32 -9 -15 -20 10 -36 40 -22 40 4 0 18 -11 31 -25z"/>
</g>
</svg>
